<svg data-v-423bf9ae="" xmlns="http://www.w3.org/2000/svg" viewBox="0 0 891.0447592086268 193" class="fontAboveSlogan"><!----><!----><!----><g data-v-423bf9ae="" id="b00315fd-3170-4162-90b0-f94a1fa35a5b" fill="#000000" transform="matrix(11.84600184050668,0,0,11.84600184050668,204.5946670148065,-35.97184375088669)"><path d="M5.61 13.01L5.61 12.30L6.29 12.30L6.29 8.37L2.89 8.37L2.89 12.30L3.58 12.30L3.58 13.01L0.49 13.01L0.49 12.30L1.18 12.30L1.18 3.74L0.49 3.74L0.49 3.04L3.58 3.04L3.58 3.74L2.89 3.74L2.89 7.66L6.29 7.66L6.29 3.74L5.61 3.74L5.61 3.04L8.70 3.04L8.70 3.74L8.01 3.74L8.01 12.30L8.70 12.30L8.70 13.01L5.61 13.01ZM9.63 6.27L11.91 6.27L11.91 10.21L11.91 10.21Q11.91 12.49 13.26 12.49L13.26 12.49L13.26 12.49Q13.99 12.49 14.64 11.72L14.64 11.72L14.64 6.93L13.95 6.93L13.95 6.27L16.23 6.27L16.23 12.35L16.92 12.35L16.92 13.01L14.64 13.01L14.64 12.64L14.64 12.64Q14.29 12.89 13.89 13.03L13.89 13.03L13.89 13.03Q13.49 13.17 13.04 13.17L13.04 13.17L13.04 13.17Q11.71 13.17 10.99 12.35L10.99 12.35L10.99 12.35Q10.32 11.59 10.32 10.25L10.32 10.25L10.32 6.93L9.63 6.93L9.63 6.27ZM25.28 13.01L22.31 13.01L22.31 12.35L23.00 12.35L23.00 9.06L23.00 9.06Q23.00 6.78 21.64 6.78L21.64 6.78L21.64 6.78Q20.92 6.78 20.27 7.55L20.27 7.55L20.27 12.35L20.96 12.35L20.96 13.01L17.99 13.01L17.99 12.35L18.68 12.35L18.68 6.93L17.99 6.93L17.99 6.27L20.27 6.27L20.27 6.64L20.27 6.64Q20.62 6.38 21.02 6.24L21.02 6.24L21.02 6.24Q21.42 6.10 21.87 6.10L21.87 6.10L21.87 6.10Q23.19 6.10 23.91 6.92L23.91 6.92L23.91 6.92Q24.59 7.70 24.59 9.02L24.59 9.02L24.59 12.35L25.28 12.35L25.28 13.01ZM30.63 11.85L30.63 7.46L30.63 7.46Q30.26 7.12 29.91 6.94L29.91 6.94L29.91 6.94Q29.57 6.77 29.24 6.77L29.24 6.77L29.24 6.77Q29.05 6.77 28.85 6.90L28.85 6.90L28.86 6.90L28.86 6.90Q27.88 7.62 27.88 9.67L27.88 9.67L27.88 9.67Q27.88 11.96 29.07 12.44L29.07 12.44L29.06 12.44L29.06 12.44Q29.15 12.48 29.22 12.49L29.22 12.49L29.22 12.49Q29.29 12.51 29.37 12.51L29.37 12.51L29.37 12.51Q29.70 12.51 30.06 12.30L30.06 12.30L30.06 12.30Q30.42 12.10 30.63 11.85L30.63 11.85ZM29.93 3.70L29.93 3.04L32.20 3.04L32.20 12.35L32.90 12.35L32.90 13.01L30.63 13.01L30.63 12.74L30.63 12.74Q30.04 13.15 29.16 13.15L29.16 13.15L29.16 13.15Q26.29 13.15 26.29 9.64L26.29 9.64L26.29 9.64Q26.29 6.11 29.09 6.11L29.09 6.11L29.09 6.11Q30.00 6.11 30.63 6.52L30.63 6.52L30.63 6.52Q30.63 5.79 30.62 5.12L30.62 5.12L30.62 5.12Q30.62 4.44 30.62 3.70L30.62 3.70L29.93 3.70ZM35.57 9.67L35.57 9.67L35.57 9.67Q35.57 10.78 35.88 11.51L35.88 11.51L35.88 11.51Q36.29 12.50 37.17 12.50L37.17 12.50L37.17 12.50Q37.60 12.50 37.92 12.24L37.92 12.24L37.92 12.24Q38.25 11.99 38.45 11.52L38.45 11.52L38.45 11.52Q38.60 11.15 38.68 10.68L38.68 10.68L38.68 10.68Q38.77 10.22 38.77 9.69L38.77 9.69L38.77 9.69Q38.77 8.58 38.45 7.81L38.45 7.81L38.45 7.81Q38.03 6.77 37.17 6.77L37.17 6.77L37.17 6.77Q36.73 6.77 36.40 7.04L36.40 7.04L36.40 7.04Q36.08 7.31 35.88 7.78L35.88 7.78L35.88 7.78Q35.74 8.15 35.65 8.63L35.65 8.63L35.65 8.63Q35.57 9.12 35.57 9.67ZM40.35 9.64L40.35 9.64L40.35 9.64Q40.35 11.51 39.55 12.34L39.55 12.34L39.55 12.34Q38.75 13.15 36.90 13.15L36.90 13.15L36.90 13.15Q33.97 13.15 33.97 9.64L33.97 9.64L33.97 9.64Q33.97 6.11 37.33 6.11L37.33 6.11L37.33 6.11Q40.35 6.11 40.35 9.64Z"></path></g><!----><!----><g data-v-423bf9ae="" id="b82b35a1-80f3-46d8-8d2c-afc23f0986c9" fill="#000000" transform="matrix(5.970149140426311,0,0,5.970149140426311,-1.6716507640889517,117.11940539664838)"><path d="M0.56 3.25L6.57 3.25L0.28 12.60L7.14 12.60L7.14 12.15L1.13 12.15L7.42 2.80L0.56 2.80ZM16.31 7.48L20.65 7.48L20.65 7.08L16.31 7.08L16.31 3.21L20.93 3.21L20.93 2.80L15.89 2.80L15.89 12.60L20.93 12.60L20.93 12.19L16.31 12.19ZM30.73 2.80ZM30.31 2.80L30.31 12.60L30.73 12.60L30.73 8.48L32.28 8.48L35.41 12.60L35.95 12.60L32.76 8.47C33.66 8.41 34.37 8.15 34.91 7.67C35.45 7.20 35.71 6.52 35.71 5.64C35.71 4.71 35.41 4.00 34.80 3.52C34.20 3.04 33.40 2.80 32.41 2.80ZM30.73 3.21L32.41 3.21C33.28 3.21 33.97 3.41 34.50 3.83C35.02 4.24 35.28 4.85 35.28 5.64C35.28 6.44 35.02 7.04 34.50 7.45C33.97 7.87 33.28 8.08 32.41 8.08L30.73 8.08ZM44.21 7.70C44.21 6.38 44.62 5.29 45.43 4.41C46.24 3.53 47.27 3.09 48.51 3.09C49.75 3.09 50.78 3.53 51.59 4.41C52.40 5.29 52.81 6.38 52.81 7.70C52.81 9.02 52.40 10.11 51.59 10.99C50.78 11.87 49.75 12.31 48.51 12.31C47.27 12.31 46.24 11.87 45.43 10.99C44.62 10.11 44.21 9.02 44.21 7.70ZM43.79 7.70C43.79 9.16 44.24 10.36 45.13 11.30C46.02 12.24 47.15 12.71 48.51 12.71C49.87 12.71 51.00 12.24 51.89 11.30C52.78 10.36 53.23 9.16 53.23 7.70C53.23 6.24 52.78 5.04 51.89 4.10C51.00 3.16 49.87 2.69 48.51 2.69C47.15 2.69 46.02 3.16 45.13 4.10C44.24 5.04 43.79 6.24 43.79 7.70ZM72.41 3.21L74.93 3.21L74.93 12.60L75.35 12.60L75.35 3.21L77.87 3.21L77.87 2.80L72.41 2.80ZM85.71 7.70C85.71 6.38 86.11 5.29 86.93 4.41C87.74 3.53 88.76 3.09 90.01 3.09C91.25 3.09 92.27 3.53 93.09 4.41C93.90 5.29 94.30 6.38 94.30 7.70C94.30 9.02 93.90 10.11 93.09 10.99C92.27 11.87 91.25 12.31 90.01 12.31C88.76 12.31 87.74 11.87 86.93 10.99C86.11 10.11 85.71 9.02 85.71 7.70ZM85.29 7.70C85.29 9.16 85.73 10.36 86.63 11.30C87.52 12.24 88.64 12.71 90.01 12.71C91.37 12.71 92.50 12.24 93.39 11.30C94.28 10.36 94.72 9.16 94.72 7.70C94.72 6.24 94.28 5.04 93.39 4.10C92.50 3.16 91.37 2.69 90.01 2.69C88.64 2.69 87.52 3.16 86.63 4.10C85.73 5.04 85.29 6.24 85.29 7.70ZM115.09 3.96L117.45 3.22L117.45 12.60L117.89 12.60L117.89 2.66L115.09 3.50ZM127.97 7.70C127.97 6.34 128.24 5.23 128.78 4.38C129.32 3.53 130.03 3.11 130.91 3.11C131.80 3.11 132.51 3.53 133.05 4.38C133.59 5.23 133.85 6.34 133.85 7.70C133.85 9.01 133.58 10.10 133.04 10.98C132.50 11.85 131.79 12.29 130.91 12.29C130.04 12.29 129.33 11.85 128.79 10.98C128.24 10.10 127.97 9.01 127.97 7.70ZM127.55 7.70C127.55 9.17 127.86 10.38 128.48 11.31C129.11 12.25 129.92 12.71 130.91 12.71C131.91 12.71 132.72 12.25 133.34 11.31C133.96 10.38 134.27 9.17 134.27 7.70C134.27 6.23 133.96 5.02 133.34 4.09C132.72 3.15 131.91 2.69 130.91 2.69C129.92 2.69 129.11 3.15 128.48 4.09C127.86 5.02 127.55 6.23 127.55 7.70ZM143.23 7.70C143.23 6.34 143.50 5.23 144.04 4.38C144.58 3.53 145.29 3.11 146.17 3.11C147.06 3.11 147.77 3.53 148.31 4.38C148.85 5.23 149.11 6.34 149.11 7.70C149.11 9.01 148.84 10.10 148.30 10.98C147.76 11.85 147.05 12.29 146.17 12.29C145.30 12.29 144.59 11.85 144.05 10.98C143.50 10.10 143.23 9.01 143.23 7.70ZM142.81 7.70C142.81 9.17 143.12 10.38 143.74 11.31C144.37 12.25 145.18 12.71 146.17 12.71C147.17 12.71 147.98 12.25 148.60 11.31C149.22 10.38 149.53 9.17 149.53 7.70C149.53 6.23 149.22 5.02 148.60 4.09C147.98 3.15 147.17 2.69 146.17 2.69C145.18 2.69 144.37 3.15 143.74 4.09C143.12 5.02 142.81 6.23 142.81 7.70Z"></path></g></svg>